<?xml version="1.0" encoding="UTF-8"?>
<svg width="360px" height="112px" viewBox="0 0 360 112" version="1.1" xmlns="http://www.w3.org/2000/svg" xmlns:xlink="http://www.w3.org/1999/xlink">
    <!-- Generator: Sketch 61.2 (89653) - https://sketch.com -->
    <title>Group</title>
    <desc>Created with Sketch.</desc>
    <g id="Final" stroke="none" stroke-width="1" fill="none" fill-rule="evenodd">
        <g id="A---L---I---C" transform="translate(-38.000000, -37.000000)">
            <g id="Group" transform="translate(38.000000, 37.000000)">
                <path d="M65.0000818,8 C90.9574199,8 112,29.0425801 112,54.9999182 L112,54.9999182 L112,99.7210168 C112,101.718614 111.51254,103.686038 110.57992,105.452564 C107.414474,111.448408 99.9877812,113.742898 93.9919378,110.577452 L93.9919378,110.577452 L81.2424046,103.846462 C77.7889295,102.023234 73.942711,101.070273 70.037503,101.070273 L70.037503,101.070273 L45.9700797,101.070246 C20.5538308,101.042555 -0.0276624906,80.4161672 2.79082567e-05,54.9999182 L2.79082567e-05,54.9999182 L0.000112724988,54.920584 C0.0278256984,28.9989506 21.0492384,8 46.9708866,8 L46.9708866,8 Z M65.4722489,32.018135 L46.5349993,32.018135 C34.0945533,32.018135 24.0051372,42.0947006 23.9892822,54.5351366 C23.9734533,66.9550942 34.0289864,77.036291 46.4489441,77.0521199 L65.4722489,77.0521381 C77.9080454,77.0521381 87.9892504,66.9709332 87.9892504,54.5351366 C87.9892504,42.09934 77.9080454,32.018135 65.4722489,32.018135 Z" id="A" fill="#000000"></path>
                <path d="M172,32 C178.627417,32 184,37.372583 184,44 L184,44 L184,100 C184,106.627417 178.627417,112 172,112 C165.372583,112 160,106.627417 160,100 L160,100 L160,44 C160,37.372583 165.372583,32 172,32 Z M172,0 C178.627417,-1.21743675e-15 184,5.372583 184,12 C184,18.627417 178.627417,24 172,24 C165.372583,24 160,18.627417 160,12 C160,5.372583 165.372583,1.21743675e-15 172,0 Z" id="I" fill="#000000"></path>
                <path d="M124,20 L124,100 C124,106.627417 129.372583,112 136,112 C142.627417,112 148,106.627417 148,100 L148,20 C148,13.372583 142.627417,8 136,8 C129.372583,8 124,13.372583 124,20 Z" id="L-Same-As-A" fill="#000000"></path>
                <path d="M237.012193,100.012193 C253.028451,100.012193 266.012193,87.0284511 266.012193,71.0121933 C266.012193,54.9959356 253.028451,42.0121933 237.012193,42.0121933 C220.995936,42.0121933 208.012193,54.9959356 208.012193,71.0121933" id="C" stroke="#000000" stroke-width="24" stroke-linecap="round" stroke-linejoin="round" transform="translate(237.012193, 71.012193) rotate(-135.000000) translate(-237.012193, -71.012193) "></path>
                <path d="M319,30 C341.417238,30 359.632445,47.9910344 359.994507,70.32199 L360,71 L359.996304,71.3012297 C359.838898,77.7083621 354.673922,82.8733376 348.26679,83.0307361 L347.96556,83.0344321 L331.006796,83.0348181 L331.04,82.999 L306.958187,82.9997807 C310.036226,86.0885344 314.29489,88 319,88 C319.932484,88 320.847433,87.9249225 321.739132,87.7804824 C323.06273,87.2755154 324.49919,87 326,87 C332.627417,87 338,92.372583 338,99 C338,104.247977 334.631176,108.709122 329.938101,110.338864 L330.189423,110.243591 C325.674246,111.954647 324.114837,112.000749 319,112.000749 C296.356325,112.000749 278,93.6436747 278,71 C278,48.3563253 296.356325,30 319,30 Z M319,54 C312.81494,54 307.401348,57.3030463 304.426945,62.2414183 L333.573055,62.2414183 C330.598652,57.3030463 325.18506,54 319,54 Z" id="Combined-Shape" fill="#000000" transform="translate(319.000000, 71.000374) rotate(-360.000000) translate(-319.000000, -71.000374) "></path>
            </g>
        </g>
    </g>
</svg>