<svg width="55" height="50" viewBox="0 0 55 50" fill="none" xmlns="http://www.w3.org/2000/svg">
<g opacity="0.4">
<path fill-rule="evenodd" clip-rule="evenodd" d="M53.7665 36.1592V21.298C53.7621 19.6975 53.1151 18.1642 51.9676 17.0355C50.8202 15.9068 49.2663 15.2751 47.6479 15.2793H40.7134C37.347 15.2971 34.6274 18.001 34.6274 21.3303V26.1711C34.6454 29.5003 37.3795 32.1898 40.7461 32.1898H48.3495C50.8788 32.0741 53.142 33.7325 53.7665 36.1592Z" fill="#B0B0B0" stroke="#959595" stroke-width="2.28428" stroke-linecap="round" stroke-linejoin="round"/>
<path fill-rule="evenodd" clip-rule="evenodd" d="M2.12527 44.2103V12.2612C2.17695 11.1909 2.67476 10.1895 3.50027 9.49545C4.32579 8.80137 5.40521 8.47658 6.48173 8.59834H44.205C46.1388 8.59826 47.7114 10.1391 47.7293 12.0514L47.8436 36.3521C47.848 37.3063 47.4655 38.2224 46.7817 38.8956C46.0979 39.5688 45.1698 39.9429 44.205 39.9343H6.28593C5.1536 39.9334 4.06982 40.389 3.28468 41.1959C2.49954 42.0028 2.08087 43.0913 2.12527 44.2103Z" fill="#B0B0B0" stroke="#959595" stroke-width="2.28428" stroke-linecap="round" stroke-linejoin="round"/>
<path d="M35.3679 31.6861C41.5441 26.5147 42.3668 17.3254 37.2054 11.1613C32.0441 4.9972 22.8533 4.19246 16.6771 9.36387C10.5009 14.5353 9.67822 23.7245 14.8395 29.8887C20.0009 36.0528 29.1917 36.8575 35.3679 31.6861Z" fill="#727272" stroke="#959595" stroke-width="2.28428" stroke-linecap="round" stroke-linejoin="round"/>
<path fill-rule="evenodd" clip-rule="evenodd" d="M47.746 20.4739L47.6479 44.7584C47.6308 46.6397 46.1071 48.168 44.2052 48.2115L7.55877 48.0663H5.50292C3.56925 48.0486 2.01123 46.4933 2.01123 44.5809L2.10913 12.6318C2.07388 13.7511 2.49781 14.8368 3.28451 15.6422C4.07122 16.4475 5.15382 16.904 6.2861 16.9079H7.15087L44.2052 16.9724C45.1469 16.9637 46.0526 17.3298 46.7185 17.9884C47.3844 18.6469 47.7546 19.5426 47.746 20.4739Z" fill="#DADCDD"/>
<path fill-rule="evenodd" clip-rule="evenodd" d="M2.12525 12.6162L2.01103 43.8876C1.92251 45.0737 2.36993 46.2377 3.23284 47.0661C4.09575 47.8946 5.28546 48.3024 6.4817 48.1797H44.205C46.1414 48.171 47.7115 46.6255 47.7293 44.7105L47.8435 20.4099C47.8167 18.4467 46.1902 16.8743 44.205 16.8922H6.28591C5.15357 16.8931 4.06979 16.4375 3.28465 15.6306C2.49951 14.8237 2.08084 13.7352 2.12525 12.6162Z" stroke="#959595" stroke-width="2.28428" stroke-linecap="round" stroke-linejoin="round"/>
<path fill-rule="evenodd" clip-rule="evenodd" d="M53.7666 22.2803V37.0769C53.7487 40.4061 51.0145 43.0956 47.648 43.0956H37.6788C34.3186 43.0779 31.6017 40.3838 31.5928 37.0608V32.22C31.5971 30.6195 32.2442 29.0862 33.3916 27.9574C34.5391 26.8287 36.093 26.197 37.7114 26.2013H48.2844C50.8251 26.3602 53.1235 24.7163 53.7666 22.2803Z" fill="#DADCDD"/>
<path d="M40.5827 38.2246C42.5201 38.2246 44.0907 36.6713 44.0907 34.7554C44.0907 32.8394 42.5201 31.2861 40.5827 31.2861C38.6453 31.2861 37.0747 32.8394 37.0747 34.7554C37.0747 36.6713 38.6453 38.2246 40.5827 38.2246Z" fill="#DCDCDC" stroke="#959595" stroke-width="2.28428" stroke-linecap="round" stroke-linejoin="round"/>
<path fill-rule="evenodd" clip-rule="evenodd" d="M53.7666 22.2803V37.0769C53.7487 40.4061 51.0145 43.0956 47.648 43.0956H37.6788C34.3186 43.0779 31.6017 40.3838 31.5928 37.0608V32.22C31.5971 30.6195 32.2442 29.0862 33.3916 27.9574C34.5391 26.8287 36.093 26.197 37.7114 26.2013H48.2844C50.8251 26.3602 53.1235 24.7163 53.7666 22.2803Z" stroke="#959595" stroke-width="2.28428" stroke-linecap="round" stroke-linejoin="round"/>
</g>
</svg>
